<?xml version="1.0" encoding="utf-8"?>
<!-- Generator: Adobe Illustrator 21.0.0, SVG Export Plug-In . SVG Version: 6.00 Build 0)  -->
<svg version="1.1" id="Ebene_1" xmlns="http://www.w3.org/2000/svg" xmlns:xlink="http://www.w3.org/1999/xlink" x="0px" y="0px"
	 viewBox="0 0 841.9 368.5" style="enable-background:new 0 0 841.9 368.5;" xml:space="preserve">
<style type="text/css">
	.st0{fill:#FFFFFF;}
</style>
<g>
	<path class="st0" d="M179.3,183.1c1.2,0,1.5,0.5,1.5,1.7l-6.3,85.8c0,1.1-0.7,1.5-1.7,1.5h-6.1c-1,0-1.3-0.5-1.3-1.5l5.7-72.5
		L132.5,268c-0.5,1-1.3,1.4-2.4,1.4h-6.3c-1.1,0-1.7-0.5-1.9-1.4l-16.5-69.9L88,270.6c-0.1,1.1-0.7,1.5-1.7,1.5h-6.1
		c-1,0-1.5-0.5-1.3-1.5l20.9-85.8c0.2-1.2,1-1.7,2.1-1.7h6.5c2.6,0,3,1.2,3.7,4.4l16.4,71.5l38.9-71.5c1.8-3.2,2.5-4.4,5-4.4H179.3z
		"/>
	<path class="st0" d="M247.5,239.9c-4.2,26.3-9.8,32.8-31.8,32.8c-21.9,0-25.3-6.5-21.3-32.8c4.2-26.2,9.9-32.7,31.8-32.7
		S251.6,213.7,247.5,239.9z M203.1,239.9c-3.2,20.1-1.7,25.2,13.9,25.2s18.7-5.1,21.9-25.2c3.2-20.1,1.7-25.1-13.9-25.1
		S206.3,219.8,203.1,239.9z"/>
	<path class="st0" d="M281.3,189.8c1.2-0.4,1.7,0.1,1.4,1.3l-2.6,16.7h13.2c1.1,0,1.4,0.5,1.3,1.5l-0.7,4.2c-0.1,1-0.7,1.4-1.7,1.4
		H279l-6.9,43.6c-0.8,5.4,0.4,6.7,6.7,6.7h6.4c1.1,0,1.5,0.4,1.4,1.4l-0.6,3.9c-0.2,1-0.8,1.4-1.8,1.7c-2.3,0.5-5.7,0.6-6.5,0.6
		c-8.2,0-16.4-0.6-14.5-12.5l7.1-45.3h-6.7c-1.1,0-1.5-0.5-1.4-1.4l0.8-4.2c0.1-1.1,0.7-1.5,1.7-1.5h6.8l2.4-15.1
		c0.1-0.8,0.7-1.3,1.5-1.5L281.3,189.8z"/>
	<path class="st0" d="M315,207.7c1.1,0,1.4,0.5,1.3,1.5l-9.8,61.3c-0.1,1.1-0.7,1.5-1.7,1.5h-5.6c-1.1,0-1.4-0.5-1.3-1.5l9.8-61.3
		c0.1-1,0.7-1.5,1.7-1.5H315z M320.8,189.5c-0.6,3.7-2.9,5.7-6.4,5.7c-3.7,0-5.4-2-4.6-5.7c0.5-3.6,2.7-5.5,6.4-5.5
		C319.7,184.1,321.4,186,320.8,189.5z"/>
	<path class="st0" d="M381.2,239.9c-4.2,26.3-9.8,32.8-31.8,32.8c-21.9,0-25.3-6.5-21.3-32.8c4.2-26.2,9.9-32.7,31.8-32.7
		S385.4,213.7,381.2,239.9z M336.8,239.9c-3.2,20.1-1.7,25.2,13.9,25.2s18.7-5.1,21.9-25.2c3.2-20.1,1.7-25.1-13.9-25.1
		S340,219.8,336.8,239.9z"/>
	<path class="st0" d="M450.7,234.3l-5.8,36.3c-0.1,1.1-0.8,1.5-1.9,1.5h-5.4c-1.1,0-1.4-0.5-1.3-1.5l5.8-36.3
		c2.9-18.4-1.4-19.5-13.3-19.5h-18.3l-8.9,55.8c-0.1,1.1-0.7,1.5-1.7,1.5h-5.6c-1.1,0-1.4-0.5-1.3-1.5l9.5-60.2
		c0.2-1.2,0.7-1.4,1.8-1.5c9.5-1.7,18.7-1.7,24.4-1.7C448.3,207.1,454.6,209.6,450.7,234.3z"/>
	<path class="st0" d="M587,183.1c1.2,0,1.4,0.2,1.1,1.5L558.9,259c-4.8,12-6.5,13.7-16.1,13.7c-10.6,0-11.3-1.7-12.4-13.7l-4.8-57.5
		L502.8,259c-5,12-6.3,13.7-16.8,13.7c-9.5,0-10.8-1.7-11.7-13.7l-5.6-74.3c0-1.4,0.2-1.7,1.4-1.7h6.8c0.8,0,1.1,0.2,1.2,1.5
		l5.2,72.2c0.5,6.9,1.1,7.9,3.9,7.9c3.5,0,4.2-1,7-7.9l28.1-68.5c0.6-1.3,1.1-1.5,2-1.5h7.1c0.8,0,1.4,0.2,1.4,1.5l6.4,68.5
		c0.7,6.9,1.1,7.9,4.6,7.9c2.9,0,3.7-1.1,6.4-7.9l28.1-72.2c0.5-1.3,0.7-1.5,1.5-1.5H587z"/>
	<path class="st0" d="M605.4,207.7c1.1,0,1.4,0.5,1.3,1.5l-9.8,61.3c-0.1,1.1-0.7,1.5-1.7,1.5h-5.6c-1.1,0-1.4-0.5-1.3-1.5l9.8-61.3
		c0.1-1,0.7-1.5,1.7-1.5H605.4z M611.1,189.5c-0.6,3.7-2.9,5.7-6.4,5.7c-3.7,0-5.4-2-4.6-5.7c0.5-3.6,2.7-5.5,6.4-5.5
		C610,184.1,611.7,186,611.1,189.5z"/>
	<path class="st0" d="M664.1,208c1,0.1,1.3,0.7,1.1,1.7l-0.6,3.6c-0.1,1.1-0.7,1.5-1.7,1.5h-21.8c-5.4,0-10.6,1.7-11.4,7.1l-0.2,1.9
		c-0.7,4,0.4,7,6.3,9.6l15.8,6.8c9.6,4.2,9.8,9.8,8.8,15.9l-0.2,1.4c-2,12.6-9.4,15.1-25.8,15.1c-8.6,0-18.8-0.7-20.5-1
		c-1.2-0.1-1.4-0.7-1.3-1.5l0.6-3.6c0.1-1.1,0.7-1.5,1.7-1.5h20.9c11.1,0,14.9-1.4,15.7-7.5l0.2-1.5c0.7-3.9-0.4-6.5-5.7-8.9
		l-16.7-7.1c-8.4-3.7-9.5-9.9-8.6-16.3l0.5-2.6c2-12.9,14-13.9,24.5-13.9C650.3,207.1,658,207.3,664.1,208z"/>
	<path class="st0" d="M727.7,237.7l-0.6,3.5c-0.4,2-0.8,3-4.2,3h-38.8c-2.4,16.5-0.1,20.9,13.8,20.9h18.7c1.1,0,1.4,0.5,1.3,1.5
		l-0.6,3.6c-0.1,1-0.7,1.5-1.8,1.7c-5.6,0.6-12.7,0.8-18.8,0.8c-21.5,0-24.9-6.5-20.7-32.8s9.5-32.7,31.2-32.7
		C727.5,207.1,731.3,213.2,727.7,237.7z M685.3,236.4h34c2.6-17.6,0.4-21.7-13.2-21.7C691.7,214.8,688.2,219,685.3,236.4z"/>
	<g>
		<g>
			<g>
				<g>
					<path class="st0" d="M621,71.5c-4.6,0-8.9,0.6-12.8,1.8c-3.8,1.2-7.2,2.9-10,5.2c-2.8,2.3-5.2,5.1-6.9,8.3
						c-1.8,3.3-3,7.1-3.6,11.3c-0.7,4-0.7,7.7-0.1,11c0.6,3.2,1.9,5.9,3.9,8.2c4.2,5,11.4,7.7,20.8,7.7c7,0,13.1-1.4,18.2-4.1
						c-4.3-2.7-8.9-5.7-11.4-7.4c-1.1,2-2.6,3.2-4.3,3.3c-0.1,0-0.2,0-0.3,0c-3.5,0-6.6-4.5-7.1-10.2c-0.5-5.9,2.1-11,5.7-11.3
						c0.1,0,0.2,0,0.3,0c3.5,0,6.6,4.5,7.1,10.2c0.1,1.6,0.1,3.2-0.2,4.6l10.3,5.5c1.1,0.5,2.1,1.1,3.1,1.7l0.1,0.1
						c0.4,0.2,0.7,0.4,1.1,0.6c2.8-2.3,5.1-5.1,6.8-8.3c1.8-3.4,3.1-7.2,3.7-11.5c0.4-2.8,0.6-5.4,0.4-7.9l-1.1-0.2
						c-0.5-0.1-1-0.2-1.7-0.2l-1.8-0.2c-1.1-0.1-2.2-0.3-3.3-0.4c-1.4-0.2-2.7-0.3-4.1-0.4c-0.9-0.1-1.8-0.2-2.7-0.3
						c-0.5-0.1-1-0.1-1.4-0.1c-0.7-0.1-1.4-0.1-2-0.2c-0.3,0-0.6-0.1-0.8-0.1c-0.3,0-0.6-0.1-0.9-0.1c-0.2,0-0.4,0-0.6-0.1
						c-0.4,0-0.7-0.1-1.1-0.1c-1.4-0.1-2.5-0.3-3.5-0.4c-0.6-0.1-1.2-0.2-1.8-0.2c-0.2,0-0.4-0.1-0.6-0.1c-0.4-0.1-0.8-0.1-1.2-0.2
						l-0.1,0c-0.3-0.1-0.5-0.4-0.4-0.7c0.1-0.2,0.2-0.4,0.5-0.4l3.5-0.4l3.5-0.3l1-0.1c0.8-0.1,1.7-0.1,2.6-0.2l1.8-0.1
						c0.2,0,0.3,0,0.5,0c0.4,0,0.8,0,1.2,0l0.1,0c0.3,0,0.6,0,0.9,0l0,0c0.4,0,0.7,0,1.1,0c0.6,0,1,0,1.5,0l1.8,0l1.8,0.1
						c0.9,0,1.7,0.1,2.5,0.2c0.3,0,0.7,0.1,1,0.1c0.4,0,0.8,0.1,1.1,0.1c0.2,0,0.4,0,0.6,0.1c0.4,0,0.9,0.1,1.3,0.2
						c-1.3-4.3-4-7.7-7.9-10C633,72.7,627.6,71.5,621,71.5z"/>
				</g>
			</g>
		</g>
		<g>
			<g>
				<path class="st0" d="M613,98.9c-0.1,0-0.1,0-0.2,0c-1.1,0.1-2,0.9-2.7,2.3c-0.7,1.4-1,3.3-0.8,5.3c0.3,3.9,2.3,6.9,4.6,6.9
					c0.1,0,0.1,0,0.2,0c1.1-0.1,2-0.9,2.7-2.3c0.7-1.4,1-3.3,0.8-5.3C617.2,101.9,615.2,98.9,613,98.9z"/>
			</g>
		</g>
	</g>
	<g>
		<g>
			<g>
				<g>
					<path class="st0" d="M648.6,130.3c0.5,5.2,1.8,10,4,14.1c2.2,4.3,5.3,7.9,9.3,10.9c3.9,3,8.7,5.2,14.2,6.7
						c5.6,1.5,11.9,2.3,18.8,2.3c34.1,0,56.5-18.2,61.5-49.8c1.2-7.5,1.1-14.3-0.1-20.2c-1.2-5.9-3.7-11-7.2-15.1
						c-3.8-4.5-9-7.9-15.3-10.2c-6.4-2.3-14.1-3.5-22.8-3.5c-7.5,0-14.5,0.8-20.9,2.5c-6,1.6-11.5,3.9-16.3,6.9
						c1.2,0.3,2.4,0.5,3.5,0.8c1.9,0.6,3.6,1.1,5.1,1.7c1.7,0.7,3.4,1.5,4.8,2.3c1.7,1,3.2,2,4.4,3.1c0.8,0.7,1.4,1.3,2,1.9
						c0.3,0.3,0.6,0.7,0.9,1.1c0.2,0.3,0.5,0.7,0.8,1.2c0.1,0.1,0.1,0.3,0,0.4c0,0.1-0.1,0.3-0.3,0.3c-0.2,0.1-0.4,0.1-0.6,0
						l-0.1-0.1c-1.3-0.9-2.7-1.7-4.5-2.6c-1.4-0.7-2.9-1.3-4.5-1.9l-0.2-0.1c-0.3-0.1-0.6-0.2-0.9-0.3c-0.2-0.1-0.3-0.1-0.4-0.2
						c-0.2-0.1-0.5-0.2-0.7-0.3c-0.2-0.1-0.5-0.2-0.7-0.2c-0.5-0.2-1.1-0.4-1.6-0.5c-0.3-0.1-0.5-0.2-0.8-0.3
						c-0.1,0-0.2-0.1-0.4-0.1c-0.2-0.1-0.5-0.1-0.7-0.2l0,0c-0.1,0-0.3-0.1-0.4-0.1l-0.6-0.2l-0.6-0.2c-0.1,0-0.3-0.1-0.4-0.1
						c-0.2-0.1-0.5-0.1-0.7-0.2c-2.4-0.7-4.8-1.3-7.1-1.9c-3.7,3-7,6.4-9.7,10.3l0,0c2.3,0.8,4.5,1.8,6.5,2.9
						c1.2,0.6,2.2,1.2,3.1,1.8c0.9,0.6,1.9,1.3,2.9,2.2c0.1,0.1,0.2,0.2,0.2,0.4c0,0.1,0,0.3-0.1,0.4c-0.2,0.2-0.4,0.2-0.6,0.1
						l-0.1,0c-2.4-1-4.8-1.7-6.6-2.3c-2.3-0.7-4.4-1.2-6.5-1.7c-0.3-0.1-0.7-0.2-1-0.2c-3.8,6.5-6.3,14.1-7.5,22.5
						c-0.6,3.5-1,6.9-1,10.1l5.2,2.6c1.7,0.9,3.6,1.8,5.8,2.8c2,0.9,3.9,1.8,5.9,2.6c0.3,0.1,0.4,0.5,0.3,0.8
						c-0.1,0.2-0.3,0.4-0.5,0.4l-0.1,0c-0.4,0-0.8,0-1.2,0c-0.2,0-0.3,0-0.5,0l-0.1,0c-0.5,0-1.1-0.1-1.7-0.2
						c-0.5-0.1-1-0.1-1.6-0.2l-0.1,0c-0.4-0.1-0.7-0.1-1.1-0.2c-0.2,0-0.4-0.1-0.6-0.1c-2.1-0.4-4.2-1-6.4-1.7
						C650.8,131.1,649.7,130.7,648.6,130.3z M679.5,149.3c-6.3,0-11.7-6.4-12.4-14.5c-0.3-4.1,0.6-8.1,2.5-11.2c2-3.1,4.9-5,8-5.3
						c0.3,0,0.5,0,0.8,0c6.3,0,11.7,6.4,12.4,14.5c0.7,8.5-4,15.9-10.6,16.4C680,149.3,679.7,149.3,679.5,149.3z M715.9,143
						c-0.4,0-0.8,0-1.2,0c-1.1,0-2-0.1-2.9-0.2c-2.1-0.2-4-0.6-5.7-1.1l-0.1,0c-0.1,0-0.3-0.1-0.3-0.3c-0.1-0.1-0.1-0.3,0-0.4
						c0.1-0.2,0.2-0.4,0.5-0.4l2.7-0.3c0.6-0.1,1.2-0.1,1.7-0.2c0.3,0,0.7-0.1,1-0.1c0.7-0.1,1.3-0.2,2-0.2l0.1,0
						c0.2,0,0.5-0.1,0.7-0.1c0.8-0.1,1.5-0.2,2.3-0.3l0.4-0.1c0.8-0.1,1.5-0.3,2.3-0.4l0.4-0.1c0.6-0.1,1.3-0.3,1.9-0.4l0,0
						c0.2-0.1,0.5-0.1,0.7-0.2c0.4-0.1,0.9-0.2,1.3-0.3l1.3-0.3c0.3-0.1,0.6-0.2,0.8-0.2c0.2,0,0.3-0.1,0.5-0.1l0.3-0.1
						c0.3-0.1,0.6-0.2,1-0.3c4-1.2,7.2-2.5,10-4.1c0.3-0.1,0.5-0.3,0.7-0.4l0,0c0.1-0.1,0.3-0.2,0.4-0.2c0.2-0.2,0.5-0.3,0.7-0.5
						c0.1-0.1,0.3-0.2,0.4-0.3c0.7-0.5,1.4-1.1,2.1-1.7c0.7-0.7,1.3-1.3,1.8-1.9c0.3-0.3,0.5-0.7,0.8-1.1c0.2-0.3,0.4-0.7,0.6-1.1
						c0.1-0.3,0.4-0.4,0.7-0.3c0.2,0.1,0.4,0.3,0.4,0.5v0c0,1-0.2,2-0.7,3.1c-0.4,0.9-0.9,1.8-1.6,2.7c-0.5,0.7-1.1,1.5-2,2.4
						c-0.8,0.8-1.5,1.4-2.3,2c-0.1,0.1-0.3,0.2-0.4,0.3l0,0c-0.3,0.2-0.5,0.4-0.8,0.6l-0.2,0.2c-0.3,0.2-0.7,0.4-1,0.7l-0.3,0.2
						c-0.3,0.2-0.7,0.4-1,0.6l-1.3,0.7c-0.3,0.2-0.6,0.3-0.9,0.4c-0.1,0.1-0.3,0.1-0.4,0.2l-0.7,0.3l-0.9,0.4
						c-0.4,0.1-0.8,0.3-1.1,0.4l-1.4,0.4c-0.4,0.1-0.7,0.2-1.1,0.3l-0.3,0.1c-0.2,0-0.3,0.1-0.5,0.1c-0.3,0.1-0.6,0.2-0.9,0.2
						l-1.5,0.3c-0.4,0.1-0.9,0.2-1.3,0.2c-0.2,0-0.4,0.1-0.7,0.1c-0.7,0.1-1.5,0.2-2.2,0.3c-0.1,0-0.3,0-0.4,0l0,0
						c-0.3,0-0.6,0.1-0.9,0.1c-0.3,0-0.6,0-0.9,0c-0.2,0-0.3,0-0.5,0c-0.3,0-0.7,0-1,0c-0.1,0-0.3,0-0.4,0
						C716.1,143,716,143,715.9,143z M713.2,125.7c-1.4,0-2.9-0.1-4.3-0.2c-3.3-0.3-6.6-1-9.7-2.1c-0.3-0.1-0.7-0.2-1-0.4L698,123
						c-0.1,0-0.2-0.1-0.3-0.1c-0.3-0.1-0.6-0.2-0.9-0.3l-1.2-0.5c-0.3-0.1-0.5-0.2-0.8-0.4c-0.1-0.1-0.3-0.1-0.4-0.2
						c-0.4-0.2-0.8-0.4-1.1-0.6l-1.1-0.6l-1.8-1.1c-0.1-0.1-0.2-0.1-0.3-0.2l-1.9-1.3c-0.3-0.2-0.6-0.4-0.9-0.6
						c-0.3-0.2-0.6-0.4-1-0.6l-0.9-0.6l-1.5-1c-0.4-0.3-0.9-0.6-1.3-0.8c-1.3-0.8-2.6-1.6-3.8-2.3c-0.2-0.1-0.3-0.2-0.5-0.3l0,0
						c-0.4-0.2-0.9-0.5-1.3-0.7l-1-0.5c-0.2-0.1-0.4-0.2-0.6-0.3c-0.1-0.1-0.2-0.1-0.4-0.2c-2.5-1.1-5.1-2.1-8.2-2.9
						c-1.2-0.3-2.4-0.6-3.6-0.9l-0.9-0.2c-1.8-0.4-3.2-0.8-4.6-1.2l0,0c-0.1,0-0.3-0.1-0.3-0.3c-0.1-0.1-0.1-0.3-0.1-0.4
						c0.1-0.2,0.3-0.4,0.5-0.4c3,0.1,6.2,0.1,9.3,0.5c3.2,0.3,6.3,1,9.2,2c2.6,0.9,5.3,2.2,8.5,4c2.4,1.4,4.9,2.9,7.9,4.9
						c0.4,0.3,0.9,0.6,1.3,0.9c0.2,0.1,0.4,0.3,0.6,0.4l1,0.6c0.1,0,0.1,0.1,0.2,0.1c0.1,0.1,0.2,0.1,0.3,0.2l0.5,0.3
						c1.2,0.6,2.4,1.2,4.1,1.9c1.2,0.5,2.6,0.9,4.3,1.4c1.4,0.4,2.8,0.7,4.5,1c2.9,0.5,6,0.8,9.1,0.9c1.5,0,3.1,0,4.6,0
						c1.7-0.1,3.2-0.2,4.5-0.4c0.3,0,0.6,0.2,0.6,0.5c0,0.3-0.1,0.5-0.3,0.6l0,0c-1.4,0.6-2.9,1.1-4.6,1.5c-1.5,0.4-3,0.6-4.8,0.8
						C716.9,125.5,715.1,125.7,713.2,125.7z M733.7,106.2l-0.4-0.2c-0.3-0.2-0.6-0.3-0.9-0.5c-0.2-0.1-0.4-0.2-0.6-0.3
						c-0.2-0.1-0.3-0.2-0.5-0.3l-1.1-0.6c-0.2-0.1-0.4-0.2-0.6-0.3c-0.5-0.3-1.1-0.6-1.7-0.8c-3-1.4-6-2.7-9.5-4.1
						c-0.4-0.2-0.8-0.3-1.2-0.5c-0.4-0.2-0.9-0.3-1.3-0.5c-0.2-0.1-0.4-0.2-0.6-0.3c-0.2-0.1-0.4-0.2-0.6-0.2
						c-0.1-0.1-0.3-0.1-0.5-0.2c-0.3-0.1-0.5-0.2-0.8-0.3c-0.9-0.4-1.7-0.7-2.6-1.1c-0.9-0.4-1.7-0.8-2.6-1.2l-0.1,0
						c-0.1-0.1-0.2-0.2-0.3-0.3c0-0.1,0-0.3,0-0.4c0.1-0.2,0.3-0.3,0.5-0.3l2.7,0.3l2.7,0.4c0.3,0.1,0.5,0.1,0.8,0.1
						c0.6,0.1,1.3,0.2,1.9,0.4l2,0.4c0.2,0,0.3,0.1,0.4,0.1l0.2,0.1c3.9,1,7.3,2.2,10.4,3.6c0.7,0.3,1.3,0.7,2,1l0.5,0.3l1.2,0.7
						c0.3,0.2,0.5,0.3,0.8,0.5c0.1,0.1,0.3,0.2,0.4,0.3c1.6,1,3.1,2.1,4.5,3.3c3.2,2.8,5.5,5.6,7,8.6c0.1,0.3,0,0.6-0.3,0.7
						c-0.1,0-0.2,0.1-0.2,0.1c-0.1,0-0.3,0-0.4-0.1l-0.1-0.1c-1.3-1.1-2.6-2.3-4.2-3.4c-1.4-1-2.7-1.9-4.3-2.9l-0.2-0.1
						c-0.1-0.1-0.2-0.1-0.3-0.2l-0.5-0.3c-0.1-0.1-0.2-0.1-0.3-0.2c-0.1-0.1-0.2-0.1-0.3-0.2l-1.1-0.6
						C734,106.3,733.8,106.3,733.7,106.2L733.7,106.2z"/>
				</g>
			</g>
		</g>
		<g>
			<g>
				<g>
					<path class="st0" d="M677.5,123.7c4.2,0,7.8,4.3,8.3,9.8c0.2,2.8-0.4,5.5-1.7,7.6c-1.3,2.1-3.2,3.3-5.3,3.5c-0.2,0-0.3,0-0.5,0
						c-4.2,0-7.8-4.3-8.3-9.8c-0.5-5.8,2.7-10.8,7-11.1C677.2,123.7,677.4,123.7,677.5,123.7L677.5,123.7"/>
				</g>
			</g>
		</g>
	</g>
</g>
</svg>
