<?xml version="1.0" encoding="utf-8"?>
<!-- Generator: Adobe Illustrator 21.0.0, SVG Export Plug-In . SVG Version: 6.00 Build 0)  -->
<svg version="1.1" id="Layer_1" xmlns="http://www.w3.org/2000/svg" xmlns:xlink="http://www.w3.org/1999/xlink" x="0px" y="0px"
	 viewBox="0 0 567 567" style="enable-background:new 0 0 567 567;" xml:space="preserve">
<style type="text/css">
	.st0{fill:#FFFFFF;}
</style>
<g>
	<path class="st0" d="M250.2,246.9c-20-34.1,2-71.8,48-84.7c44.6-12.3,96,3.3,116.8,35c6,9.1,9.4,18.1,10.3,26.6
		c2.3-1.5,3.4-2.3,5.9-4.1c12.9-9.1,23-15.4,31-28.3c13.3-21.4,5.8-41.8-6-58.8c-17-24.7-61.2-39.9-120.4-43
		c-42.6-4.4-94.3-0.5-149,13c-35.9,8.9-61.1,17.9-92.6,30.8c-2.3,0.4-12.1,5.6-20.1,0.3c-2-1.2-3-3.6-2.7-5.4
		c0.2-4.6,7.3-8.6,8.5-8.8c33.6-13.7,57.6-22.3,97.3-31.9C332.8,50,482.1,63.8,519.4,115.8c27.1,37.9-8.3,92.9-97.1,142.2
		c-8.1,4.6-19.3,9.3-19.3,9.3s-5.9,2.1-9,0c-3.6-2.6-3.8-7-1.5-15.3c1-11-1.5-18.1-6.5-26.9c-5.6-9.8-13.7-17.6-24.6-22.1
		c-12.3-5.8-26.2-6.4-39.4-2.7c-13.2,3.9-22.4,11.5-25,21.9c-3,8.9-0.4,18.6,6.2,28.4c6,8.8,12.1,14.5,24.5,22.1
		c10.5,4.3,15,7.4,15.3,11.1c0.1,4.5-5.8,4.5-11.8,4.5C295.9,289.4,266.2,274.3,250.2,246.9z"/>
	<path class="st0" d="M320.9,115.8c-3.3-2.4-9.5-2.4-10.2-2.2c-26.3,2.8-44.8,5.6-73.2,12.9c-124.7,32.4-217.7,101.8-193,150.6
		c17.9,35.3,95.7,49.2,193.5,34.8c10.9-1.6,17.6-3.2,21.2-5.9c2.5-1.8,3.7-4.1,3.2-5.9c0.1-2.5-2.2-4.2-2.6-4.5
		c-1.6-1.3-4.5-2.5-8.8-2.1c-64.3,6.2-113.8-8.8-130.3-39.6C98.1,211.8,153.4,162,244.2,138c25.7-6.8,45-9.8,69.7-12.7
		c1,0.2,10.2-0.7,9.4-6.2C323.2,118,322.3,116.6,320.9,115.8z"/>
	<g>
		<path class="st0" d="M117.2,446.1l-26.9-39.4c6.6-1.5,11.7-4.8,15.3-9.9c3.6-5.1,5.4-11.4,5.4-18.8c0.1-4.4-0.8-8.8-2.5-13.3
			s-4.8-8.3-9.3-11.4s-10.8-4.7-18.9-4.8H38.8V446h17v-38.9h15.1L96.6,446L117.2,446.1L117.2,446.1z M93.6,378
			c0,2.3-0.4,4.4-1.2,6.2c-0.8,1.8-2,3.3-3.7,4.5c-1.4,0.9-3,1.6-4.8,2s-4,0.6-6.4,0.6H55.8v-26.1h23.5c5.4,0,9.2,1.2,11.3,3.4
			C92.7,370.9,93.7,374,93.6,378z"/>
		<polygon class="st0" points="529.1,437.3 487,394.3 525.7,361.8 513.7,348.8 482.8,376.7 467.8,390.6 467.8,349.6 450.8,349.6 
			450.8,447.1 467.8,447.1 467.8,410.8 474.3,405.4 515.3,448.7 		"/>
		<rect x="255.5" y="396.8" class="st0" width="40.6" height="14.6"/>
		<path class="st0" d="M420.5,446.1l-26.9-39.4c6.6-1.5,11.7-4.8,15.3-9.9c3.6-5.1,5.4-11.4,5.4-18.8c0.1-4.4-0.8-8.8-2.5-13.3
			s-4.8-8.3-9.3-11.4s-10.8-4.7-18.9-4.8h-41.5V446h17v-38.9h15.1l25.7,38.9L420.5,446.1L420.5,446.1z M396.9,378
			c0,2.3-0.4,4.4-1.2,6.2c-0.8,1.8-2,3.3-3.7,4.5c-1.4,0.9-3,1.6-4.8,2s-4,0.6-6.4,0.6h-21.7v-26.1h23.5c5.4,0,9.2,1.2,11.3,3.4
			C395.9,370.9,397,374,396.9,378z"/>
		<polygon class="st0" points="219.3,362.2 219.3,347.6 136.5,347.6 136.5,362.2 169.4,362.2 169.4,445.1 186.4,445.1 186.4,362.2 
					"/>
	</g>
</g>
<g>
	<path class="st0" d="M229.3,496.8v-7.5c-0.1-6.4-1.5-11-4.3-13.9s-6.4-4.3-10.9-4.3s-8.1,1.4-10.9,4.3c-2.8,2.9-4.2,7.5-4.3,13.9
		v7.5c0.1,6.4,1.5,11,4.3,13.9s6.4,4.3,10.9,4.3s8.1-1.4,10.9-4.3C227.8,507.8,229.2,503.2,229.3,496.8 M224.2,496.8
		c0,4.8-0.9,8.3-2.7,10.4s-4.2,3.1-7.3,3.1s-5.6-1-7.3-3.1c-1.8-2.1-2.7-5.6-2.7-10.4v-7.5c0-4.8,0.9-8.3,2.7-10.4s4.2-3.1,7.3-3.1
		s5.6,1,7.3,3.1c1.8,2.1,2.6,5.6,2.7,10.4V496.8z"/>
	<path class="st0" d="M345.4,496.8v-7.5c-0.1-6.4-1.5-11-4.3-13.9s-6.4-4.3-10.9-4.3s-8.1,1.4-10.9,4.3s-4.2,7.5-4.3,13.9v7.5
		c0.1,6.4,1.5,11,4.3,13.9s6.4,4.3,10.9,4.3s8.1-1.4,10.9-4.3C343.9,507.8,345.3,503.2,345.4,496.8 M340.3,496.8
		c0,4.8-0.9,8.3-2.7,10.4c-1.8,2.1-4.2,3.1-7.3,3.1c-3.1,0-5.6-1-7.3-3.1c-1.8-2.1-2.7-5.6-2.7-10.4v-7.5c0-4.8,0.9-8.3,2.7-10.4
		c1.8-2.1,4.2-3.1,7.3-3.1c3.1,0,5.6,1,7.3,3.1c1.8,2.1,2.6,5.6,2.7,10.4V496.8z"/>
	<path class="st0" d="M128.2,512.3v-39.8c0-0.3-0.1-0.6-0.3-0.8c-0.2-0.2-0.4-0.3-0.7-0.3h-3.1c-0.3,0-0.6,0.1-0.7,0.4
		c-0.2,0.2-0.3,0.5-0.3,0.8V510c-0.5,0-1.2,0.1-2.2,0.1s-2,0.1-3.1,0.1s-2.1,0.1-2.9,0.1c-2.3,0-4.2-0.3-5.8-0.9
		c-1.5-0.6-2.7-1.8-3.4-3.6c-0.8-1.8-1.1-4.3-1.1-7.6v-25.6c0-0.3-0.1-0.6-0.3-0.8c-0.2-0.2-0.4-0.3-0.7-0.3h-3.1
		c-0.3,0-0.6,0.1-0.7,0.4s-0.3,0.5-0.3,0.8v25.6c0,4.2,0.6,7.6,1.7,10s2.9,4.2,5.1,5.2c2.3,1,5.1,1.5,8.5,1.5c1,0,2.2,0,3.7-0.1
		s3-0.1,4.5-0.2c1.5-0.1,2.8-0.2,3.8-0.4c0.6-0.1,1-0.2,1.2-0.4C128.1,513.4,128.2,513,128.2,512.3"/>
	<path class="st0" d="M65.4,513.6v-30.3c0-4.4-1-7.5-3-9.3s-5-2.7-9-2.7h-3.3c-4-0.1-7.1,0.8-9.1,2.7c-2,1.8-3,4.9-3,9.3v30.3
		c0,0.3,0.1,0.6,0.3,0.8s0.4,0.3,0.7,0.4h3.1c0.3,0,0.6-0.1,0.7-0.4c0.2-0.2,0.3-0.5,0.3-0.8v-17.2h17.2v17.2c0,0.3,0.1,0.6,0.3,0.8
		s0.4,0.3,0.7,0.3h3.1c0.3,0,0.5-0.1,0.7-0.4C65.3,514.2,65.4,513.9,65.4,513.6 M60.3,491.8H43.1v-8.5c0-2.9,0.5-4.9,1.6-5.9
		s2.9-1.5,5.4-1.4h3.3c2.5-0.1,4.3,0.4,5.4,1.4c1.1,1,1.6,3,1.6,5.9L60.3,491.8L60.3,491.8z"/>
	<path class="st0" d="M179,475.1v-2.5c0-0.3-0.1-0.6-0.3-0.8c-0.2-0.2-0.5-0.3-0.8-0.3h-27c-0.3,0-0.6,0.1-0.8,0.3
		c-0.2,0.2-0.3,0.4-0.3,0.7v2.5c0,0.3,0.1,0.6,0.3,0.7s0.5,0.2,0.8,0.2h10.9v37.4c0,0.3,0.1,0.6,0.3,0.8s0.4,0.3,0.7,0.3h3.1
		c0.3,0,0.6-0.1,0.7-0.4c0.2-0.2,0.3-0.5,0.3-0.8V476H178c0.3,0,0.6-0.1,0.8-0.2C178.9,475.6,179,475.4,179,475.1"/>
	<path class="st0" d="M397.1,475.1v-2.5c0-0.3-0.1-0.6-0.3-0.8c-0.2-0.2-0.5-0.3-0.8-0.3h-27c-0.3,0-0.6,0.1-0.8,0.3
		c-0.2,0.2-0.3,0.4-0.3,0.7v2.5c0,0.3,0.1,0.6,0.3,0.7c0.2,0.1,0.5,0.2,0.8,0.2h11v37.4c0,0.3,0.1,0.6,0.3,0.8
		c0.2,0.2,0.4,0.3,0.7,0.3h3.1c0.3,0,0.6-0.1,0.7-0.4c0.2-0.2,0.3-0.5,0.3-0.8V476H396c0.3,0,0.6-0.1,0.8-0.2
		C397,475.6,397.1,475.4,397.1,475.1"/>
	<path class="st0" d="M530.1,513.9v-3c0-0.2-0.1-0.4-0.2-0.5c-0.1-0.1-0.3-0.2-0.5-0.2h-10.8c-2.9,0-4.8-0.4-5.7-1.4
		c-0.9-0.9-1.3-2.5-1.2-4.7v-9.7h17.2c0.3,0,0.6-0.1,0.8-0.3c0.2-0.2,0.3-0.5,0.3-0.8v-2.2c0-0.3-0.1-0.6-0.3-0.8
		c-0.2-0.2-0.5-0.3-0.8-0.3h-17.2v-8.1c-0.1-2.2,0.3-3.7,1.2-4.7c0.9-0.9,2.8-1.4,5.7-1.4h10.8c0.2,0,0.3-0.1,0.5-0.2
		s0.2-0.3,0.2-0.5v-2.9c0-0.2-0.1-0.4-0.2-0.5c-0.1-0.2-0.2-0.3-0.4-0.3c-0.8-0.1-1.9-0.1-3.1-0.2c-1.3,0-2.6-0.1-4-0.1
		s-2.7,0-3.8,0c-3.9,0-6.9,0.8-8.9,2.5s-3,4.5-3,8.3v22.3c0,3.8,1,6.6,3,8.3s5,2.5,8.9,2.5c1.1,0,2.4,0,3.8,0c1.4,0,2.8,0,4.1-0.1
		c1.3,0,2.3-0.1,3-0.2c0.2,0,0.3-0.1,0.4-0.3C530,514.3,530.1,514.1,530.1,513.9"/>
	<path class="st0" d="M288.9,513.4v-37.8c0-1.9-0.4-3-1.1-3.5s-1.6-0.7-2.7-0.6H283c-1.1,0-2,0.2-2.5,0.8c-0.6,0.5-1.1,1.6-1.7,3.1
		l-6.5,17.6c-0.1,0.2-0.1,0.4-0.2,0.5s-0.1,0.1-0.2,0.1s-0.1,0-0.2-0.1c0-0.1-0.1-0.2-0.2-0.5l-6.5-17.6c-0.5-1.5-1.1-2.6-1.6-3.1
		s-1.4-0.8-2.6-0.8h-2.1c-1.1-0.1-2,0.1-2.7,0.6s-1.1,1.6-1.1,3.5v37.8c0,0.3,0.1,0.6,0.2,0.8c0.2,0.2,0.4,0.3,0.7,0.3h3.1
		c0.2,0,0.4-0.1,0.6-0.3s0.3-0.4,0.3-0.7v-36.4c0-0.3,0-0.5,0.1-0.5c0.1-0.1,0.2-0.1,0.3-0.1c0.1,0,0.2,0,0.3,0.1
		c0.1,0.1,0.2,0.3,0.3,0.5l7,18.4c0.3,0.8,0.6,1.3,1,1.7c0.4,0.4,0.9,0.6,1.7,0.6h2.9c0.7,0,1.3-0.2,1.7-0.6c0.4-0.4,0.7-1,1-1.7
		l7-18.4c0.1-0.3,0.2-0.4,0.3-0.5c0.1-0.1,0.2-0.1,0.3-0.1c0.1,0,0.2,0,0.3,0.1c0.1,0.1,0.1,0.3,0.1,0.5v36.4c0,0.3,0.1,0.6,0.3,0.7
		c0.2,0.2,0.4,0.2,0.6,0.3h3.1c0.3,0,0.5-0.1,0.7-0.3C288.8,514.1,288.9,513.8,288.9,513.4"/>
	<path class="st0" d="M425.6,471.9c-0.2-0.2-0.4-0.3-0.7-0.3h-3.1c-0.3,0-0.6,0.1-0.7,0.4s-0.3,0.5-0.3,0.8v1.1v2.3v12.4v10.8v10.9
		v1.5v1.9c0,0.3,0.1,0.6,0.3,0.8c0.2,0.2,0.4,0.3,0.7,0.3h3.1c0.3,0,0.6-0.1,0.7-0.4c0.2-0.2,0.3-0.5,0.3-0.8v-1.9v-1.5v-12.4V487
		v-11v-2.3v-1.1C425.9,472.4,425.8,472.1,425.6,471.9"/>
	<path class="st0" d="M485.9,471.8c-0.2-0.2-0.4-0.3-0.8-0.3h-3.2c-0.2,0-0.5,0.1-0.7,0.4c-0.2,0.2-0.4,0.5-0.5,0.9l-11.6,32.3
		l-11.6-32.3c-0.1-0.3-0.3-0.6-0.5-0.9c-0.2-0.2-0.4-0.4-0.7-0.4h-3.2c-0.3,0-0.6,0.1-0.8,0.3c-0.2,0.2-0.3,0.5-0.3,0.9
		c0,0.3,0.1,0.6,0.2,1.1l14.6,40c0.2,0.4,0.5,0.8,0.9,0.8h1.3h1.3c0.4-0.1,0.7-0.4,0.9-0.8l14.6-40c0.1-0.5,0.2-0.8,0.2-1.1
		C486.2,472.3,486.1,472.1,485.9,471.8"/>
</g>
</svg>
