<?xml version="1.0" encoding="utf-8"?>
<!-- Generator: Adobe Illustrator 21.0.0, SVG Export Plug-In . SVG Version: 6.00 Build 0)  -->
<svg version="1.1" id="Logo_1_" xmlns="http://www.w3.org/2000/svg" xmlns:xlink="http://www.w3.org/1999/xlink" x="0px" y="0px"
	 viewBox="0 0 889.5 226.8" style="enable-background:new 0 0 889.5 226.8;" xml:space="preserve">
<style type="text/css">
	.st0{fill:#FFFFFF;}
</style>
<g id="Logo_2_">
	<g id="Auto">
		<path class="st0" d="M606.5,73.7l10.8,92.1c0.1,1.8-0.1,2.1-1.8,2.1h-8.4c-1,0-1.3-0.4-1.5-1.9l-4.1-34.1H555L540,165.9
			c-0.7,1.5-0.9,1.9-1.9,1.9h-8.6c-1.5,0-1.8-0.4-1.2-2.1l40.7-92.1c6.6-14.9,9-17,21.1-17C603.4,56.7,604.8,58.8,606.5,73.7z
			 M579.4,76.3l-19.9,45.5h41l-5.2-45.5c-1-8.6-1.2-9.7-6.8-9.7C583.8,66.6,583.1,67.8,579.4,76.3z"/>
		<path class="st0" d="M702.3,88c1.2,0,1.8,0.6,1.6,1.9l-12,74.7c-0.1,1.5-0.9,1.6-2.2,1.9c-11.8,2.1-23.2,2.1-30.1,2.1
			c-24.3,0-32.2-3.2-27.4-33.6l7.2-45c0.3-1.3,1.2-1.9,2.4-1.9h6.6c1.3,0,1.8,0.7,1.6,1.9l-7.1,44.9c-3.7,23,1.8,24.3,16.4,24.3
			h22.9l10.9-69.2c0.3-1.3,0.9-1.9,2.2-1.9H702.3z"/>
		<path class="st0" d="M742.4,65.7c1.5-0.4,2.1,0.1,1.8,1.6L740.9,88h16.4c1.3,0,1.8,0.6,1.6,1.9l-0.9,5.2c-0.1,1.2-0.9,1.8-2.1,1.8
			h-16.4l-8.6,54c-1,6.6,0.4,8.3,8.3,8.3h8c1.3,0,1.9,0.4,1.8,1.8l-0.7,4.9c-0.3,1.2-1,1.8-2.2,2.1c-2.8,0.6-7.1,0.7-8.1,0.7
			c-10.2,0-20.4-0.7-18-15.5l8.9-56.2h-8.3c-1.3,0-1.9-0.6-1.8-1.8l1-5.2c0.2-1.3,0.9-1.9,2.1-1.9h8.4l3-18.7c0.1-1,0.9-1.6,1.9-1.9
			L742.4,65.7z"/>
		<path class="st0" d="M830.9,127.8c-5.2,32.6-12.1,40.7-39.4,40.7c-27.2,0-31.4-8.1-26.4-40.7c5.2-32.5,12.2-40.6,39.4-40.6
			S836.1,95.4,830.9,127.8z M775.9,127.8c-4,24.9-2.1,31.3,17.3,31.3c19.3,0,23.2-6.3,27.2-31.3c4-24.9,2.1-31.1-17.3-31.1
			C783.7,96.7,779.8,102.9,775.9,127.8z"/>
	</g>
	<g id="TTTech">
		<g>
			<g>
				<path class="st0" d="M148.1,84.2h-31.7l-17.7,83.6H70.7l17.7-83.6H56.7l4.8-24.1H153L148.1,84.2z"/>
			</g>
			<g>
				<polygon class="st0" points="138.6,167.8 166.6,167.8 184.3,84.2 216,84.2 220.8,60.1 161.8,60.1 				"/>
			</g>
			<g>
				<polygon class="st0" points="229.7,60.1 206.9,167.8 235,167.8 252.6,84.2 284.3,84.2 289.1,60.1 				"/>
			</g>
			<g>
				<path class="st0" d="M289.8,134.9c-0.2,1.5-0.3,2.7-0.3,5.3c0.8,8.1,5.4,12.5,13.9,12.5c8.7,0,13-3.3,14.9-8.6h25
					c-6.2,18.7-22,26-41,26c-21.7,0-37.6-11-37.6-34.1c0-27.8,18.3-48.7,46.6-48.7c20.2,0,35.8,11.6,35.8,34.3c0,4.7-0.3,9-0.9,13.4
					H289.8z M322.4,120.6c0.8-8.8-3.3-16-11.9-16c-10.6,0-16.1,6.2-18.9,16H322.4z"/>
			</g>
			<g>
				<path class="st0" d="M409.6,118c0.2-3.8-1.1-6.8-3.2-8.9c-2-2-4.7-2.9-8.3-3c-15.1-0.6-19.8,15.2-19.8,27.2c0,11.3,4.4,18,13,18
					c8.2,0,13-5.3,14.9-13.3h24.9c-4.7,22.3-20.2,32.1-40.9,32.1c-21.7,0-37.6-11-37.6-34.1c0-27.8,18.3-48.7,46.6-48.7
					c19.8,0,35,9.8,35.2,30.8H409.6z"/>
			</g>
			<g>
				<path class="st0" d="M455,60.1h25.7l-8.3,38.6l0.3,0.3c3.5-5.3,13-11.8,26.7-11.8c14,0,22.5,8.6,22.5,22c0,5.1-1.8,13-2.7,16.9
					l-9.4,41.7h-25.7l8.9-41.5c0.8-3.6,1.5-6.9,1.5-10c0-6.2-3.9-9.5-9.4-9.5c-15.8,0-17.7,14.9-20.4,27.8l-6.9,33.2h-25.7L455,60.1
					z"/>
			</g>
		</g>
	</g>
</g>
</svg>
